<?xml version="1.0" encoding="UTF-8"?>
<svg width="400px" height="400px" viewBox="0 0 400 400" version="1.1" xmlns="http://www.w3.org/2000/svg" xmlns:xlink="http://www.w3.org/1999/xlink">
    <!-- Generator: Sketch 44.1 (41455) - http://www.bohemiancoding.com/sketch -->
    <title>无图片-大</title>
    <desc>Created with Sketch.</desc>
    <defs>
        <rect id="path-1" x="0" y="0" width="400" height="400"></rect>
    </defs>
    <g id="Page-2" stroke="none" stroke-width="1" fill="none" fill-rule="evenodd">
        <g id="1.发现-列表页-宠物详情页" transform="translate(-30.000000, -778.000000)">
            <g id="无图片-大" transform="translate(30.000000, 778.000000)">
                <g id="Bitmap">
                    <mask id="mask-2" fill="white">
                        <use xlink:href="#path-1"></use>
                    </mask>
                    <use id="Mask" fill="#F5F5F5" xlink:href="#path-1"></use>
                </g>
                <g id="Group" transform="translate(153.000000, 159.000000)" fill="#FFFFFF">
                    <path d="M8.31215655,47.4073926 C4.838981,47.4073926 2.025,44.6523049 2.025,41.2518188 L2.025,16.6989216 C2.025,12.0284581 5.90219801,8.23240535 10.6724983,8.23240535 L35.041432,8.23240535 C38.5075195,8.23240535 41.3285886,10.987493 41.3285886,14.3879791 C41.3285886,17.7884651 38.5075195,20.5504926 35.041432,20.5504926 L14.5993131,20.5504926 L14.5993131,41.2518188 C14.5993131,44.6523049 11.7853321,47.4073926 8.31215655,47.4073926" id="Fill-7"></path>
                    <path d="M67.2221874,42.8735528 C59.4181746,42.8735528 53.0743131,49.0915844 53.0743131,56.7253286 C53.0743131,64.3660126 59.4181746,70.5771044 67.2221874,70.5771044 C75.0262002,70.5771044 81.3700616,64.3660126 81.3700616,56.7253286 C81.3700616,49.0915844 75.0262002,42.8735528 67.2221874,42.8735528 M67.2221874,82.8951916 C52.4859997,82.8951916 40.5,71.1531051 40.5,56.7253286 C40.5,42.2975521 52.4859997,30.5624053 67.2221874,30.5624053 C81.958375,30.5624053 93.9514628,42.2975521 93.9514628,56.7253286 C93.9514628,71.1531051 81.958375,82.8951916 67.2221874,82.8951916" id="Fill-8"></path>
                    <path d="M66.558592,12.4235528 C61.3559168,12.4235528 57.1243131,16.566594 57.1243131,21.6603833 C57.1243131,26.7541726 61.3559168,30.8972137 66.558592,30.8972137 C71.7612672,30.8972137 75.9928709,26.7541726 75.9928709,21.6603833 C75.9928709,16.566594 71.7612672,12.4235528 66.558592,12.4235528 M66.558592,43.2083612 C54.4237419,43.2083612 44.55,33.5412651 44.55,21.6603833 C44.55,9.7795014 54.4237419,0.112405349 66.558592,0.112405349 C78.693442,0.112405349 88.567184,9.7795014 88.567184,21.6603833 C88.567184,33.5412651 78.693442,43.2083612 66.558592,43.2083612" id="Fill-9"></path>
                    <path d="M66.8000747,30.5624053 C60.7255615,30.5624053 55.1188639,32.5610584 50.625,35.9199058 C54.6510484,40.1948026 60.4065964,42.8735528 66.8000747,42.8735528 C73.1935529,42.8735528 78.9561891,40.1948026 82.9751494,35.9199058 C78.4812855,32.5610584 72.8745878,30.5624053 66.8000747,30.5624053" id="Fill-10"></path>
                    <path d="M20.4406684,76.7396179 C12.7784179,76.7396179 5.56271846,73.0754207 1.14682384,66.9267867 C-0.852024131,64.1508798 -0.171565248,60.3062486 2.67076821,58.3492342 C5.51310166,56.3922198 9.43282835,57.0653772 11.4316763,59.8412842 C13.4943173,62.7143479 16.8611711,64.4284705 20.4406684,64.4284705 C26.5080934,64.4284705 31.4485084,59.5914526 31.4485084,53.6510116 C31.4485084,47.7105707 26.5080934,42.8804926 20.4406684,42.8804926 C17.3786034,42.8804926 14.53627,44.0810723 12.4381884,46.2601593 C10.0494942,48.7307165 6.07306262,48.8417528 3.54969426,46.5099909 C1.0192378,44.1782291 0.905827982,40.2780798 3.28743407,37.8075226 C7.72459303,33.2064567 13.976309,30.5624053 20.4406684,30.5624053 C33.4473564,30.5624053 44.0228215,40.9234781 44.0228215,53.6510116 C44.0228215,66.3854849 33.4473564,76.7396179 20.4406684,76.7396179" id="Fill-11"></path>
                    <path d="M3.73381172,36.9539312 C2.57136113,38.1614507 2.00431206,39.7090188 2.0255764,41.2496472 C2.0255764,41.3815028 2.03266451,41.5133584 2.04684074,41.645214 C2.04684074,41.7215514 2.05392885,41.7909491 2.06101697,41.8672865 C2.07519319,41.9922023 2.09645753,42.1101784 2.11772187,42.2350942 C2.1318981,42.3114316 2.13898621,42.3947088 2.16025055,42.4710463 C2.18151489,42.5890223 2.21695546,42.7000586 2.25239603,42.8180347 C2.27366037,42.8943721 2.2878366,42.9707095 2.31618905,43.047047 C2.35162962,43.165023 2.40124641,43.2829991 2.44377509,43.3940353 C2.47212754,43.463433 2.50048,43.5397705 2.52883245,43.6091681 C2.57844924,43.7271442 2.64224226,43.8451202 2.69894717,43.9630963 C2.73438774,44.0186144 2.76274019,44.0810723 2.79109264,44.1435302 C2.85488566,44.2545665 2.93285491,44.3656028 3.00373604,44.4766391 C3.03917661,44.5321572 3.07461718,44.5946151 3.11714586,44.6501333 C3.18802699,44.7542298 3.25890813,44.8444467 3.33687737,44.9416035 C3.38649417,45.0040614 3.43611096,45.0734591 3.49281587,45.135917 C3.563697,45.2191942 3.63457813,45.2955316 3.71254738,45.3718691 C3.78342851,45.4482065 3.84722153,45.5176042 3.92519078,45.5870019 C3.99607191,45.6563995 4.07404116,45.7257972 4.15201041,45.7951949 C4.22997966,45.8645926 4.3079489,45.9270505 4.39300626,45.9895084 C4.47097551,46.058906 4.56312098,46.121364 4.64817834,46.1768821 C4.72614759,46.23934 4.80411684,46.2879184 4.8891742,46.3434365 C4.98131967,46.3989547 5.07346514,46.4544728 5.17269873,46.5099909 C5.25066798,46.5585693 5.33572534,46.6002079 5.4207827,46.6418465 C5.51292817,46.6973647 5.61216176,46.7390033 5.71848346,46.7875816 C5.80354082,46.8222805 5.88859818,46.8639191 5.98074365,46.8986179 C6.07997724,46.9333167 6.17921083,46.9680156 6.28553253,47.0027144 C6.377678,47.0374133 6.46982348,47.0651723 6.56196895,47.0929314 C6.66120254,47.1206905 6.76752424,47.1484495 6.87384594,47.1692688 C6.96599141,47.1900881 7.065225,47.2109074 7.15737047,47.2317267 C7.27078029,47.252546 7.37710199,47.2664256 7.4905118,47.2803051 C7.58265727,47.2941847 7.67480275,47.3011244 7.76694822,47.3080642 C7.88744615,47.3219437 8.00085596,47.3219437 8.12135389,47.3288835 C8.21349936,47.3288835 8.30564484,47.3358233 8.3907022,47.3358233 C8.51120012,47.3288835 8.62460994,47.3219437 8.74510786,47.315004 C8.83725334,47.3080642 8.92939881,47.3080642 9.02154429,47.2941847 C9.12786599,47.2803051 9.22709957,47.2664256 9.33342127,47.2456063 C9.43265486,47.2317267 9.53188845,47.2178472 9.63821015,47.1970279 C9.73035562,47.1762086 9.81541298,47.1484495 9.90755845,47.1276302 C10.0138802,47.0998712 10.12729,47.0721121 10.2336117,47.044353 C10.318669,47.016594 10.4037264,46.9818951 10.4887838,46.9471963 C10.5951055,46.9124974 10.694339,46.8777986 10.8006607,46.83616 C10.8928062,46.7945214 10.9707755,46.7528828 11.0629209,46.7112442 C11.1550664,46.6626658 11.2543,46.6210272 11.3464455,46.5724488 C11.4315028,46.5238705 11.5165602,46.4683523 11.5945294,46.419774 C11.6866749,46.3642558 11.7788204,46.3156774 11.8709659,46.2532195 C11.941847,46.2046412 12.0198162,46.149123 12.0906974,46.0936049 C12.1828428,46.0242072 12.2749883,45.9548095 12.3600457,45.8784721 C12.4238387,45.8298937 12.4876317,45.7743756 12.5443366,45.7188574 C12.6435702,45.6355802 12.7357157,45.5453633 12.8278612,45.4551463 C13.9194306,44.3517233 14.5928014,42.8457937 14.5928014,41.1802495 L14.5928014,30.5624053 C10.4816956,31.6797079 6.70373122,33.8726744 3.73381172,36.9539312" id="Fill-12"></path>
                    <path d="M41.4001904,63.5758233 C42.8390774,60.598663 43.6400342,57.2675747 43.6400342,53.7629921 C43.6400342,51.3410133 43.2572761,49.0023116 42.5484648,46.8024053 C41.2300757,49.8975416 40.5,53.2841481 40.5,56.8442488 C40.5,59.1690709 40.811877,61.4244953 41.4001904,63.5758233" id="Fill-13"></path>
                </g>
            </g>
        </g>
    </g>
</svg>